<svg xmlns:svg="http://www.w3.org/2000/svg" xmlns="http://www.w3.org/2000/svg" version="1.1" id="ts" xml:space="preserve" width="2048" height="2048" viewBox="0 0 2048 2048">
  
      <g id="scale" transform="scale(0.3622329681525058)"><path id="c2" d="M3542.792 137.574C3523.606 147.486 3368.762 268.126 3270.028 350.086 3181.148 423.866 3147.418 456.452 3086.898 527 3042.22 579.082 3024.518 602.006 2984.976 659 2917.77 755.862 2875.296 827.506 2826.092 927 2795.364 989.132 2788.688 1005.64 2756.938 1098 2729.09 1179.012 2718.058 1207.072 2703.466 1234 2694.72 1250.14 2689.52 1256.614 2668.914 1277.008 2652.37 1293.38 2641.024 1302.852 2633.234 1306.792 2619.714 1313.634 2612.002 1319.39 2611.996 1322.646 2611.994 1323.94 2600.968 1331.554 2587.496 1339.564 2574.024 1347.574 2561.2 1355.488 2559 1357.15 2555.01 1360.164 2554.998 1362.848 2554.43 2376.382L2553.86 3392.592 2558.278 3397.296 2562.698 3402 3818 3402 5073.302 3402 5077.694 3397.326 5082.084 3392.654 5081.542 2378.826C5081.134 1616.87 5080.426 1364.006 5078.69 1361 5076.404 1357.04 5068.762 1351.896 5040.318 1335.172 5032.244 1330.424 5024.586 1324.392 5023.3 1321.77 5021.962 1319.04 5014.848 1313.792 5006.672 1309.502 4990.546 1301.04 4956.318 1271.448 4945.474 1256.592 4937.482 1245.646 4919.31 1210.064 4909.204 1185.58 4905.44 1176.462 4893.646 1143.35 4882.996 1112 4846.12 1003.446 4831.822 969.306 4789.27 888.202 4735.832 786.344 4693.704 718.45 4625.334 624 4568.84 545.954 4498.6 466.392 4439.506 413.514 4363.648 345.634 4177.742 196.964 4106.362 147.098L4089.724 135.474 4062.872 135.742C4041.872 135.95 4029.586 137.3 4006.51 141.936 3961.808 150.916 3936.336 153.686 3874.336 156.304 3830.31 158.164 3805.154 158.164 3761.558 156.3 3698.578 153.606 3672.534 150.716 3629 141.582 3593.524 134.138 3553.082 132.258 3542.792 137.574" stroke="none" fill="#085dbf" stroke-width="12" stroke-linejoin="round" ElementName="BACK" active="true" style=""/><path id="c1" d="M922.546 334.362C795.536 414.266 693.374 496.798 607.344 589 544.358 656.504 476.704 748.284 420.114 843 380.686 908.988 322.292 1036.618 286.968 1134 273.4 1171.406 264.158 1191.402 256.302 1200.35 252.836 1204.298 250 1209.226 250 1211.3 250 1213.374 247.8 1218.31 245.11 1222.268 240.35 1229.272 239.702 1229.536 220.888 1232.118 195.54 1235.6 192 1238.248 192 1253.736L192 1265.182 168.862 1268.304C138.292 1272.428 135.214 1274.602 134.41 1292.632 133.738 1307.702 135.976 1306.31 106.72 1309.844 98.868 1310.794 89.868 1312.8 86.72 1314.304 81.46 1316.816 80.952 1318.028 80.41 1329.34 80.01 1337.638 78.902 1341.994 77.006 1342.722 75.458 1343.316 64.482 1344.894 52.614 1346.228 33.384 1348.392 30.434 1349.258 25.518 1354.174L20 1359.692 20 2376.472 20 3393.252 25.644 3398.66 31.29 3404.068 1284.144 3403.534C2266.78 3403.116 2537.92 3402.472 2541.264 3400.556 2543.61 3399.212 2546.31 3396.512 2547.264 3394.556 2549.33 3390.324 2550.906 1485.078 2548.908 1408.33L2547.538 1355.66 2541.634 1352.07C2538.386 1350.096 2531.066 1347.884 2525.366 1347.158 2519.664 1346.43 2509.416 1344.888 2502.59 1343.728L2490.182 1341.62 2489.59 1329.328C2488.866 1314.25 2487.948 1313.676 2457.39 1309.238 2445.506 1307.512 2434.93 1305.574 2433.89 1304.932 2432.85 1304.29 2432 1297.548 2432 1289.952 2432 1273.26 2431.686 1273.012 2405.428 1268.89 2376.018 1264.276 2378 1265.342 2378 1254.14 2378 1245.776 2377.15 1243.64 2372.142 1239.426 2368.712 1236.54 2362.492 1233.98 2357.142 1233.248 2352.114 1232.562 2343.908 1231.442 2338.908 1230.76 2331.356 1229.728 2328.986 1228.294 2324.908 1222.294 2322.208 1218.322 2320 1213.314 2320 1211.164 2320 1209.016 2318.242 1205.388 2316.096 1203.102 2310.808 1197.472 2299.294 1171.07 2261.948 1078.934 2222.13 980.692 2213.51 960.86 2192.864 920 2152.664 840.442 2070.48 715.892 2009.914 642.744 1916.74 530.208 1790.864 422.43 1654.458 338.39L1621.916 318.34 1595.11 318.248 1568.304 318.156 1561.592 325.068C1557.9 328.868 1547.338 344.358 1538.12 359.488 1504.412 414.82 1492.506 431.494 1478.356 443.186 1446.32 469.658 1413.642 488.05 1382.598 497.078 1357.324 504.43 1298.794 515.968 1286.692 515.986 1272.326 516.006 1223.524 506.838 1195.86 498.922 1151.732 486.294 1121.792 469.222 1089.62 438.342 1069.518 419.046 1060.708 407.13 1031.992 360.398 1023.002 345.766 1012.258 330.236 1008.12 325.884L1000.594 317.972 974.342 318.132 948.092 318.29 922.546 334.362" stroke="none" fill="#085dbf" stroke-width="12" stroke-linejoin="round" ElementName="FRONT" active="true" style=""/><path id="c4" d="M4268.532 3435.5C4265.338 3439.626 4253.868 3456.95 4243.042 3474 4195.202 3549.34 4122.552 3648.346 4063.636 3718.494 4012.156 3779.786 3913.466 3882.578 3861 3929.554 3696.682 4076.68 3518.628 4199.156 3366.51 4269.698 3288.964 4305.66 3163.11 4351.744 3060 4381.938 3034.15 4389.506 3010.508 4396.65 3007.464 4397.814 2997.166 4401.748 2996.776 4412.166 3006.02 4436.38 3009.684 4445.974 3012.2 4448.618 3032.068 4463.748 3058.098 4483.568 3072.754 4497.608 3085.114 4514.57 3096.854 4530.676 3128.556 4593.57 3133.858 4611.268 3136.12 4618.82 3140.556 4643.45 3143.714 4666 3149.342 4706.172 3149.402 4707.504 3146.622 4732 3145.062 4745.75 3141.932 4765.55 3139.67 4776 3133.212 4805.81 3133.036 4809.036 3137.608 4813.608 3142.296 4818.296 3146.926 4819.704 3217.42 4837.88 3320.912 4864.562 3407.15 4893.456 3500.048 4932.572 3661.296 5000.468 3782.062 5076.574 3899.588 5184.356 3951.854 5232.292 4071.656 5361.074 4129.234 5431.22 4153.616 5460.926 4217.506 5545.804 4241.974 5581 4262.594 5610.662 4273.054 5623.43 4278.024 5625.008 4283.138 5626.63 4287.186 5624.32 4313 5605.042 4362.66 5567.956 4398.292 5546.852 4482 5504.944 4613.212 5439.254 4738.882 5383.032 4828.444 5349.952L4867.264 5335.614 4907.936 5348.832C4959.654 5365.64 4961.402 5365.928 4969.616 5359.016L4976 5353.644 4976 4525.968 4976 3698.29 4970.522 3693.982C4962.562 3687.72 4957.584 3688.504 4892.038 3706.326L4869.076 3712.568 4847.996 3706.444C4780.402 3686.806 4692.098 3649.484 4542.092 3577.156 4414.118 3515.452 4374.84 3493.04 4303.304 3440.898 4281.948 3425.332 4276.996 3424.562 4268.532 3435.5" stroke="none" fill="#085dbf" stroke-width="12" stroke-linejoin="round" ElementName="LEFT SLEEVE" active="true" style=""/><path id="c3" d="M811.134 3432.324C806.808 3434.604 791.642 3444.536 777.432 3454.394 711.262 3500.298 678.222 3519.168 581 3566.582 421.748 3644.25 286.424 3700.648 234.346 3711.056 229.626 3711.998 221.774 3710.598 207.346 3706.238 178.832 3697.624 154.396 3691.46 145 3690.514 138.982 3689.91 135.942 3690.702 132.732 3693.718 128.646 3697.552 128.402 3700.086 127.076 3752.362 126.314 3782.414 125.986 4154.44 126.346 4579.088 126.968 5312.522 127.176 5351.446 130.526 5356.556 132.464 5359.516 136.064 5362.438 138.526 5363.05 140.986 5363.662 152.45 5361.35 164 5357.912 192.792 5349.342 232.462 5340 240.06 5340 257.622 5340 442.454 5419.128 575 5483.388 689.9 5539.094 717.526 5554.308 761 5585.82 813.206 5623.658 819.942 5627.58 827.122 5624.308 829.732 5623.12 845.03 5602.102 863.066 5574.93 924.79 5481.946 984.918 5407.398 1079.964 5306.026 1219.1 5157.63 1340.612 5060.96 1475 4991.754 1572.77 4941.404 1635.078 4915.536 1748 4878.414 1814.928 4856.412 1832.102 4851.4 1900.48 4833.914 1929.894 4826.392 1956.424 4819.056 1959.434 4817.614 1967.166 4813.908 1969.426 4806.128 1966.16 4794.454 1957.886 4764.886 1956.034 4756.34 1953.854 4737.624 1950.816 4711.56 1952.446 4675.212 1957.838 4648.776 1964.856 4614.37 1984.298 4562.252 1999.406 4537.346 2012.146 4516.346 2038.808 4487.714 2062.34 4469.766 2080.796 4455.686 2089.714 4445.192 2097.87 4427.95 2110.154 4401.986 2109.18 4401.246 2034.83 4380 1894.994 4340.038 1779.634 4294.138 1651.312 4227.398 1610.864 4206.362 1578.126 4186.816 1534.386 4157.584 1473.71 4117.036 1385.232 4053.29 1348 4023.3 1256.342 3949.468 1111.984 3810.24 1050.118 3736 995.362 3670.292 911.25 3554.808 860.024 3475 846.608 3454.1 833.758 3434.974 831.468 3432.5 826.356 3426.976 821.36 3426.934 811.134 3432.324" stroke="none" fill="#085dbf" stroke-width="12" stroke-linejoin="round" ElementName="RIGHT SLEEVE" active="true" style=""/><path id="c5" d="M277.506 29.494C252.376 30.11 251.964 30.196 248.506 35.47 245.274 40.4 244.952 50.746 244.39 167.686L243.78 294.552 249.264 300.276 254.748 306 1285.026 306 2315.302 306 2319.652 301.372 2324 296.742 2324 167.754C2324 60.23 2323.534 38.126 2321.194 34.928 2318.992 31.914 2314.806 30.794 2301.694 29.704 2285.824 28.386 330.974 28.184 277.506 29.494" stroke="none" fill="#085dbf" stroke-width="12" stroke-linejoin="round" ElementName="COLLAR" active="true" style=""/><path id="c6" d="M1058.3543 399.4097l6.1592 9.3761 21.9534 25.3765 9.6828 8.5255 0 2964.5222-37.7954 0 0-3007.8003z m-1058.3543 5216.8926l0 37.7953 37.7953 0 0-37.7953-37.7953 0z m5102.3668-5616.3023l0 37.7953-37.7953 0 0-37.7953 37.7953 0z m-3628.2644 442.6845l9.6791-8.5222 21.9538-25.377 6.1624-9.3801 0 3007.8048-37.7953 0 0-2964.5259z" stroke="none" fill="#072661" fill-rule="evenodd" stroke-width="0" ElementName="ELEMENT 1" active="true" style=""/><path id="c7" d="M1096.1497 442.6878l14.0638 12.3833 23.7311 15.7407 0 2936.3982-37.7953 0 0-2964.5222z m-1096.1497 5173.6145l0 37.7953 37.7953 0 0-37.7953-37.7953 0z m5102.3668-5616.3023l0 37.7953-37.7953 0 0-37.7953 37.7953 0z m-3666.0594 470.8114l23.727-15.7399 14.0684-12.387 0 2964.5259-37.7954 0 0-2936.3986z" stroke="none" fill="#ffffff" fill-rule="evenodd" stroke-width="0" ElementName="ELEMENT 2" active="true" style=""/><g id="subgroupElements" style="display:none"><g id="subgroup_c2"/><g id="subgroup_c1"/><g id="subgroup_c4"/><g id="subgroup_c3"/><g id="subgroup_c5"/><g id="subgroup_c6"/><g id="subgroup_c7"/></g><path id="points" d="M0 5617.1v36.7h36.8v-36.7zM5102.3 0v36.8h-36.7V0Z" stroke="grey" fill="black" fill-rule="evenodd" stroke-width="2" style=""/></g></svg>